# xmcd
#
# Track frame offsets: 
#        150
#        13229
#        25593
#        38782
#        52140
#        65861
#        78162
#        91069
#        101561
#        114155
#        125995
#        139206
#        150117
#        161480
#        172625
#        184933
#        193865
#        206254
#
# Disc length: 2921 seconds
#
# Revision: 0
# Processed by: cddbd v1.5.2PL0 Copyright (c) Steve Scherf et al.
# Submitted via: ExactAudioCopy v0.99pb4
#
DISCID=e70b6712
DTITLE=Mel Street - At His Best
DYEAR=2009
DGENRE=Country
TTITLE0=She Needs Someone To Hold Her
TTITLE1=Good Hearted Woman
TTITLE2=Have I Told You Lately That I Love You
TTITLE3=How Much More Can She Stand
TTITLE4=I've Found Someone Of My Own
TTITLE5=Rub It In
TTITLE6=She's Too Good To Be True
TTITLE7=This Time I've Hurt Her More Than She Loves Me
TTITLE8=Burning Bridges
TTITLE9=Hard Act To Follow
TTITLE10=Heart Over Mind
TTITLE11=Let The Four Winds Blow
TTITLE12=Lord, I Need Somebody Bad
TTITLE13=Strong Enough To Close My Eyes
TTITLE14=You Cared Enough To Send The Very Best
TTITLE15=Ashes Of Love
TTITLE16=Big Blue Diamonds
TTITLE17=Memory Train
EXTD=
EXTT0=
EXTT1=
EXTT2=
EXTT3=
EXTT4=
EXTT5=
EXTT6=
EXTT7=
EXTT8=
EXTT9=
EXTT10=
EXTT11=
EXTT12=
EXTT13=
EXTT14=
EXTT15=
EXTT16=
EXTT17=
PLAYORDER=
